<?xml version="1.0" standalone="no"?>
<!DOCTYPE svg PUBLIC "-//W3C//DTD SVG 20010904//EN"
 "http://www.w3.org/TR/2001/REC-SVG-20010904/DTD/svg10.dtd">
<svg version="1.0" xmlns="http://www.w3.org/2000/svg"
 width="1024.000000pt" height="1024.000000pt" viewBox="0 0 1024.000000 1024.000000"
 preserveAspectRatio="xMidYMid meet">

<g transform="translate(0.000000,1024.000000) scale(0.100000,-0.100000)"
fill="#000000" stroke="none">
<path d="M5463 7423 c15 -2 37 -2 50 0 12 2 0 4 -28 4 -27 0 -38 -2 -22 -4z"/>
<path d="M5550 7416 c0 -2 7 -7 16 -10 8 -3 12 -2 9 4 -6 10 -25 14 -25 6z"/>
<path d="M5224 7319 c-3 -6 -2 -15 3 -20 5 -5 9 -1 9 11 0 23 -2 24 -12 9z"/>
<path d="M5784 7238 c9 -14 13 -28 9 -33 -5 -4 -2 -5 5 -1 13 8 2 39 -19 52
-6 3 -4 -5 5 -18z"/>
<path d="M5180 7210 c-16 -29 -11 -38 5 -10 8 14 14 21 14 15 0 -5 -6 -21 -14
-35 -14 -25 -15 -24 -28 20 -2 8 -10 -9 -17 -38 -18 -77 -9 -196 19 -251 34
-65 103 -134 168 -167 51 -25 68 -29 148 -29 78 0 97 4 146 28 131 64 199 164
207 307 2 41 0 91 -6 110 -9 30 -10 31 -11 10 -1 -14 -6 -32 -11 -40 -7 -11
-10 -6 -10 22 0 42 -14 57 -29 31 -10 -17 -10 -17 -11 0 0 17 -9 18 -111 15
-78 -2 -113 -7 -116 -15 -4 -9 -30 -13 -84 -13 -83 0 -109 16 -36 23 37 3 36
4 -14 5 -49 2 -57 -1 -55 -15 0 -10 -6 -18 -14 -18 -8 0 -14 8 -14 18 2 14 -6
17 -42 17 -24 0 -44 4 -44 9 0 19 -30 20 -40 1z m597 -52 c-3 -7 -5 -2 -5 12
0 14 2 19 5 13 2 -7 2 -19 0 -25z m-580 -10 c-3 -8 -6 -5 -6 6 -1 11 2 17 5
13 3 -3 4 -12 1 -19z"/>
<path d="M7335 5880 c-7 -11 0 -25 13 -25 4 -1 17 -7 29 -15 18 -12 20 -17 10
-30 -10 -13 -10 -13 4 -3 9 7 19 10 22 6 4 -3 1 -13 -6 -22 -11 -14 -10 -14 6
-2 17 14 17 15 -5 35 -13 11 -33 31 -44 44 -15 17 -24 21 -29 12z"/>
<path d="M5053 5541 c-188 -189 -285 -281 -294 -276 -7 5 -10 4 -5 -3 7 -12
-102 -122 -122 -122 -16 0 4 38 31 58 9 7 15 17 12 22 -3 5 -1 20 4 33 7 18 7
27 -1 29 -8 3 -8 17 0 50 7 26 12 61 12 77 0 21 5 31 15 31 10 0 14 10 13 34
l-1 35 -71 -67 c-38 -37 -113 -108 -166 -158 -52 -50 -121 -115 -153 -145 -32
-30 -91 -85 -130 -122 -40 -38 -99 -93 -132 -123 -33 -31 -75 -70 -93 -87 -27
-26 -35 -29 -43 -17 -5 8 -8 30 -7 49 1 20 -3 36 -10 39 -14 4 -16 78 -2 87 6
4 10 -8 11 -27 2 -39 5 -24 14 55 6 57 7 59 33 53 15 -3 21 -3 15 0 -18 8 -16
27 1 21 10 -4 13 -1 9 9 -3 8 0 20 6 28 9 11 8 15 -5 20 -12 5 -40 -16 -98
-71 -45 -43 -114 -110 -155 -148 -169 -159 -566 -542 -799 -770 -90 -88 -168
-161 -175 -163 -7 -2 -4 4 7 12 18 14 18 15 -2 13 -14 -1 -19 -7 -17 -23 1
-16 -3 -22 -14 -21 -10 0 -18 9 -18 19 -1 10 2 16 7 13 6 -3 7 1 4 10 -6 14
-9 14 -25 -4 -11 -11 -19 -25 -19 -31 0 -5 -4 -10 -10 -10 -5 0 -10 4 -10 9 0
5 -3 16 -6 25 -4 10 -1 16 9 16 11 0 15 9 15 31 -1 16 -4 26 -7 22 -3 -5 -12
-8 -18 -7 -7 1 -17 2 -23 3 -5 0 -10 8 -10 16 0 8 -6 15 -14 15 -8 0 -16 -7
-20 -15 -8 -22 -23 -18 -30 7 -5 22 -8 21 -50 -21 -25 -24 -42 -49 -39 -54 4
-6 1 -7 -6 -3 -7 5 -22 0 -34 -11 -12 -10 212 215 498 500 323 322 515 520
507 524 -10 4 -8 11 8 29 17 17 21 30 17 51 -4 15 -4 22 -1 16 8 -18 22 -16
50 6 16 13 20 21 12 24 -9 3 -5 11 12 25 l25 21 -37 -11 c-21 -6 -41 -9 -44
-5 -11 11 6 57 21 57 10 0 15 10 15 30 0 26 -4 30 -30 32 -16 0 -34 1 -39 2
-9 1 -152 -133 -439 -409 -62 -60 -118 -111 -123 -113 -5 -2 -9 3 -9 12 0 9
-4 16 -10 16 -14 0 -13 -13 2 -28 13 -13 5 -27 -11 -17 -19 11 -12 47 10 52
18 5 20 11 14 40 -5 29 -3 35 14 40 12 3 21 8 21 12 0 3 3 38 6 76 6 68 5 71
-18 82 -18 8 -28 8 -41 -2 -15 -11 -16 -14 -2 -25 8 -7 15 -17 15 -22 0 -5 -7
-2 -16 6 -8 9 -20 16 -25 16 -11 0 -12 -17 -1 -23 4 -2 1 -2 -7 0 -15 4 -41
-14 -41 -29 0 -5 5 -6 12 -2 7 4 8 3 4 -4 -4 -6 -12 -9 -19 -6 -7 2 -67 -51
-133 -118 -67 -68 -177 -175 -245 -238 -67 -63 -134 -127 -149 -142 -15 -16
-30 -28 -33 -28 -3 0 -5 32 -4 71 1 39 -1 76 -6 82 -17 25 1 -345 22 -448 52
-255 155 -522 269 -693 l35 -54 101 99 c415 406 617 559 898 677 122 51 343
110 468 126 296 36 616 -13 866 -134 l112 -54 85 44 c353 183 776 203 1150 55
40 -16 163 -72 273 -124 223 -106 327 -143 435 -152 179 -16 362 70 423 198
24 51 31 135 16 181 -17 53 -64 102 -115 121 -40 16 -47 16 -98 1 -67 -20
-110 -54 -133 -106 -10 -22 -21 -37 -25 -33 -3 5 -14 32 -24 62 -47 144 35
306 183 361 235 88 490 -55 553 -310 18 -74 16 -220 -6 -300 -48 -182 -202
-347 -395 -423 -179 -70 -378 -74 -594 -11 -102 30 -129 41 -331 139 -177 85
-313 141 -410 167 -91 26 -326 35 -431 18 -82 -13 -204 -51 -241 -75 -23 -16
-23 -16 85 -104 l108 -88 94 -12 c187 -22 261 -49 585 -212 429 -216 525 -248
785 -256 129 -4 184 -2 252 11 253 48 482 172 677 367 247 247 390 505 482
869 21 83 25 232 9 291 -18 63 -58 111 -320 379 -140 144 -327 336 -415 427
-146 151 -161 164 -174 149 -8 -9 -10 -16 -5 -15 5 1 12 1 15 0 11 -2 -172
-176 -184 -176 -7 0 -12 -7 -12 -15 -1 -8 -7 -14 -14 -12 -7 1 -10 -1 -7 -6 5
-8 -243 -262 -256 -262 -2 0 -5 6 -5 14 0 8 6 12 14 9 9 -4 11 0 6 13 -5 13
-3 16 8 12 11 -4 15 2 14 26 0 27 3 31 23 28 21 -2 23 1 17 28 -5 23 -3 30 8
30 19 0 39 -24 29 -35 -4 -5 -1 -5 6 -1 7 4 10 12 6 17 -3 5 0 18 8 27 12 15
11 16 -4 4 -15 -12 -17 -11 -15 6 1 19 3 19 30 6 27 -15 28 -15 17 5 -6 12
-15 21 -20 21 -21 0 -9 28 24 58 31 28 34 36 30 69 -3 21 -2 33 3 27 4 -6 19
-14 33 -18 14 -3 19 -3 13 0 -17 8 -16 30 2 58 14 21 13 24 -5 41 -11 10 -20
24 -20 31 0 17 49 73 50 56 0 -7 4 -10 10 -7 6 4 5 11 -3 20 -10 11 -18 7 -48
-23 -85 -87 -838 -815 -852 -824 -6 -3 -16 -4 -24 -1 -9 4 -12 -2 -11 -18 2
-16 -2 -24 -12 -24 -9 0 -15 10 -15 27 -1 15 3 24 9 21 5 -3 15 2 23 12 7 11
13 13 13 7 0 -7 6 -12 13 -12 15 0 62 59 53 67 -3 4 -6 1 -6 -5 0 -6 -9 -13
-19 -17 -11 -3 -22 -14 -24 -23 -2 -9 -4 0 -3 20 1 21 4 38 9 38 4 0 7 18 7
40 0 33 3 40 20 40 13 0 20 7 20 20 0 26 40 131 57 148 7 7 13 20 13 28 0 21
19 39 55 52 24 8 7 10 -90 9 -66 0 -100 -2 -75 -4 25 -3 49 -8 54 -13 9 -9
-150 -167 -291 -288 -18 -15 -20 -21 -10 -33 7 -7 -13 9 -43 36 -30 28 -51 53
-46 56 5 4 6 15 2 24 -5 14 -4 16 7 6 19 -15 40 8 27 29 -14 22 -12 88 3 93
10 4 10 6 0 6 -16 1 -17 31 -2 31 6 0 18 7 26 16 13 13 18 13 25 2 6 -9 8 -8
6 7 -2 16 2 20 22 18 14 -1 18 0 8 3 -10 3 -18 10 -18 16 0 17 -15 6 -88 -63
-38 -37 -76 -69 -83 -72 -12 -5 -11 -7 1 -17 12 -9 10 -10 -9 -5 -17 5 -21 4
-16 -5 24 -39 -44 24 -313 290 -164 162 -304 300 -312 305 -12 8 -75 -50 -297
-274z m2147 166 c0 -2 -10 -12 -22 -23 l-23 -19 19 23 c18 21 26 27 26 19z
m40 -37 c0 -11 -4 -20 -10 -20 -5 0 -10 2 -10 4 0 2 -3 11 -6 20 -4 11 -1 16
10 16 9 0 16 -8 16 -20z m-2530 -199 c0 -5 -7 -12 -16 -15 -14 -5 -15 -4 -4 9
14 17 20 19 20 6z m-80 -75 c0 -2 -8 -10 -17 -17 -16 -13 -17 -12 -4 4 13 16
21 21 21 13z m1415 -206 c3 -6 -1 -7 -9 -4 -18 7 -21 14 -7 14 6 0 13 -4 16
-10z m35 0 c0 -5 -2 -10 -4 -10 -3 0 -8 5 -11 10 -3 6 -1 10 4 10 6 0 11 -4
11 -10z m-39 -37 c13 -16 12 -17 -3 -4 -10 7 -18 15 -18 17 0 8 8 3 21 -13z
m-2526 -33 c-3 -5 -14 -10 -23 -9 -14 0 -13 2 3 9 27 11 27 11 20 0z m475 -6
c0 -3 -27 -32 -60 -65 -57 -56 -83 -73 -40 -26 11 12 35 38 53 59 30 34 47 46
47 32z m605 -24 c-16 -16 -32 -30 -37 -30 -8 0 53 59 61 60 3 0 -8 -13 -24
-30z m-67 -62 c-7 -7 -22 -20 -33 -28 -19 -14 -19 -14 -5 5 17 23 32 35 43 35
5 0 2 -6 -5 -12z m-604 -244 c9 -25 -23 -46 -42 -28 -11 12 -11 18 -2 29 16
20 36 19 44 -1z m-1079 -70 c-9 -9 -19 -13 -23 -10 -3 4 0 11 8 16 24 15 33
11 15 -6z m1025 2 c-7 -7 -13 -7 -20 0 -6 6 -3 10 10 10 13 0 16 -4 10 -10z
m-1063 -28 c-3 -8 -6 -5 -6 6 -1 11 2 17 5 13 3 -3 4 -12 1 -19z m-247 -625
c-1 -13 -40 -56 -46 -50 -3 3 5 17 17 31 24 27 29 31 29 19z m-40 -73 c0 -5
-4 -10 -10 -10 -5 0 -10 5 -10 10 0 6 5 10 10 10 6 0 10 -4 10 -10z m117 -12
c-3 -8 -6 -5 -6 6 -1 11 2 17 5 13 3 -3 4 -12 1 -19z m-167 -12 c0 -3 -4 -8
-10 -11 -5 -3 -10 -1 -10 4 0 6 5 11 10 11 6 0 10 -2 10 -4z m200 -57 c0 -6 7
-8 18 -5 10 4 5 -5 -13 -22 -16 -16 -32 -27 -35 -25 -3 3 3 10 13 17 21 16 23
30 3 23 -10 -4 -13 -1 -9 9 6 17 23 19 23 3z m-75 -109 c-3 -5 -12 -10 -18
-10 -7 0 -6 4 3 10 19 12 23 12 15 0z"/>
<path d="M3890 4770 c0 -5 5 -10 10 -10 6 0 10 5 10 10 0 6 -4 10 -10 10 -5 0
-10 -4 -10 -10z"/>
<path d="M7295 5819 c-4 -6 -5 -13 -2 -16 7 -7 27 6 27 18 0 12 -17 12 -25 -2z"/>
<path d="M7370 5786 c0 -2 8 -10 18 -17 15 -13 16 -12 3 4 -13 16 -21 21 -21
13z"/>
<path d="M7257 5753 c-4 -3 -7 -13 -7 -22 1 -14 2 -14 14 1 7 10 16 15 19 11
4 -3 7 -1 7 5 0 13 -22 16 -33 5z"/>
<path d="M4780 5570 c-9 -6 -10 -10 -3 -10 6 0 15 5 18 10 8 12 4 12 -15 0z"/>
<path d="M6332 5540 c0 -14 2 -19 5 -12 2 6 2 18 0 25 -3 6 -5 1 -5 -13z"/>
<path d="M4770 5536 c7 -7 13 -7 20 0 6 6 3 10 -10 10 -13 0 -16 -4 -10 -10z"/>
<path d="M4740 5530 c0 -5 5 -10 11 -10 5 0 7 5 4 10 -3 6 -8 10 -11 10 -2 0
-4 -4 -4 -10z"/>
<path d="M5891 5465 l-23 -23 26 1 c20 2 26 7 26 25 0 27 1 27 -29 -3z"/>
<path d="M7191 5478 c-1 -21 15 -32 25 -17 4 7 3 9 -4 5 -6 -3 -13 2 -15 11
-4 16 -5 16 -6 1z"/>
<path d="M4338 5473 c7 -3 16 -2 19 1 4 3 -2 6 -13 5 -11 0 -14 -3 -6 -6z"/>
<path d="M6226 5455 c-3 -8 -1 -15 4 -15 6 0 10 7 10 15 0 8 -2 15 -4 15 -2 0
-6 -7 -10 -15z"/>
<path d="M6185 5410 c-3 -5 -1 -10 4 -10 6 0 11 5 11 10 0 6 -2 10 -4 10 -3 0
-8 -4 -11 -10z"/>
<path d="M7090 5345 c-10 -12 -15 -13 -20 -4 -6 8 -9 8 -14 0 -4 -6 -2 -11 5
-11 8 0 8 -5 -2 -17 -7 -10 1 -5 19 11 18 17 32 31 32 33 0 7 -8 2 -20 -12z"/>
<path d="M3476 5315 c-11 -8 -18 -17 -15 -19 2 -3 15 4 29 14 14 11 21 20 15
19 -5 0 -19 -6 -29 -14z"/>
<path d="M6120 5253 c0 -22 2 -25 10 -13 13 20 13 40 0 40 -5 0 -10 -12 -10
-27z"/>
<path d="M3026 5187 c3 -10 9 -15 12 -12 3 3 0 11 -7 18 -10 9 -11 8 -5 -6z"/>
<path d="M4655 5180 c-3 -6 1 -7 9 -4 18 7 21 14 7 14 -6 0 -13 -4 -16 -10z"/>
<path d="M4015 5170 c-3 -5 -1 -10 4 -10 6 0 11 5 11 10 0 6 -2 10 -4 10 -3 0
-8 -4 -11 -10z"/>
<path d="M4035 5140 c3 -5 8 -10 11 -10 2 0 4 5 4 10 0 6 -5 10 -11 10 -5 0
-7 -4 -4 -10z"/>
<path d="M2943 5123 c-10 -3 -9 -8 2 -20 17 -17 18 -23 5 -43 -5 -8 -13 -11
-17 -6 -4 5 -2 11 5 13 16 6 15 20 -2 26 -11 4 -13 1 -9 -10 5 -12 2 -15 -10
-10 -11 4 -14 2 -10 -9 3 -7 8 -15 12 -15 58 -11 61 -9 61 31 0 21 6 41 13 43
9 4 9 6 0 6 -6 1 -15 -3 -18 -9 -3 -5 -11 -10 -16 -10 -6 0 -7 5 -4 10 7 11 6
11 -12 3z"/>
<path d="M6079 5116 c8 -9 24 -22 35 -28 19 -10 20 -10 7 6 -8 9 -24 22 -35
28 -19 10 -20 10 -7 -6z"/>
<path d="M3472 5039 c-30 -38 -19 -37 20 1 16 17 24 30 16 29 -7 0 -23 -13
-36 -30z"/>
<path d="M6330 4920 c0 -5 5 -10 10 -10 6 0 10 5 10 10 0 6 -4 10 -10 10 -5 0
-10 -4 -10 -10z"/>
<path d="M2890 4850 c0 -5 5 -10 10 -10 6 0 10 -10 10 -22 1 -21 2 -21 11 -5
8 13 7 22 -1 33 -14 16 -30 19 -30 4z"/>
<path d="M3930 4824 c0 -9 5 -14 12 -12 18 6 21 28 4 28 -9 0 -16 -7 -16 -16z"/>
<path d="M2595 4119 c-11 -17 1 -21 15 -4 8 9 8 15 2 15 -6 0 -14 -5 -17 -11z"/>
<path d="M2631 4104 c0 -11 3 -14 6 -6 3 7 2 16 -1 19 -3 4 -6 -2 -5 -13z"/>
<path d="M2822 4047 c-12 -13 -22 -27 -22 -31 0 -4 11 5 25 20 14 15 25 29 25
30 0 8 -7 3 -28 -19z"/>
<path d="M4080 3565 c-326 -49 -599 -167 -871 -377 -103 -79 -239 -205 -239
-221 0 -35 258 -184 391 -225 135 -41 143 -41 238 23 229 153 439 217 716 217
283 0 438 -37 1023 -241 331 -116 493 -151 727 -158 101 -3 156 -2 150 4 -5 5
-73 56 -150 113 -77 57 -206 155 -286 219 -306 243 -483 360 -730 480 -308
149 -668 211 -969 166z"/>
<path d="M7709 3083 c-13 -16 -12 -17 4 -4 9 7 17 15 17 17 0 8 -8 3 -21 -13z"/>
<path d="M7447 2949 c7 -7 15 -10 18 -7 3 3 -2 9 -12 12 -14 6 -15 5 -6 -5z"/>
<path d="M7338 2923 c7 -3 16 -2 19 1 4 3 -2 6 -13 5 -11 0 -14 -3 -6 -6z"/>
<path d="M7298 2893 c7 -3 16 -2 19 1 4 3 -2 6 -13 5 -11 0 -14 -3 -6 -6z"/>
<path d="M7115 2871 c-6 -5 -26 -11 -45 -14 -33 -4 -33 -4 8 -5 23 -1 42 2 42
7 0 5 8 7 18 5 9 -3 28 -1 42 5 23 9 22 10 -15 10 -23 1 -45 -3 -50 -8z"/>
<path d="M6778 2863 c7 -3 16 -2 19 1 4 3 -2 6 -13 5 -11 0 -14 -3 -6 -6z"/>
<path d="M6838 2863 c7 -3 16 -2 19 1 4 3 -2 6 -13 5 -11 0 -14 -3 -6 -6z"/>
<path d="M6988 2843 c7 -3 16 -2 19 1 4 3 -2 6 -13 5 -11 0 -14 -3 -6 -6z"/>
</g>
</svg>
